<svg width="100" height="100" viewBox="0 0 100 100" fill="none" xmlns="http://www.w3.org/2000/svg">
  <path 
    d="M50 90C47.5 90 45.1 89.1 43.2 87.3L15.7 62.1C6.3 53.4 6.3 39.1 15.7 30.4C20.2 26.2 26.1 24 32.2 24C38.3 24 44.2 26.2 48.7 30.4L50 31.6L51.3 30.4C55.8 26.2 61.7 24 67.8 24C73.9 24 79.8 26.2 84.3 30.4C93.7 39.1 93.7 53.4 84.3 62.1L56.8 87.3C54.9 89.1 52.5 90 50 90Z" 
    fill="#FF4136" 
    stroke="#FF4136" 
    stroke-width="2" 
    stroke-linecap="round" 
    stroke-linejoin="round"
  />
</svg>
